<svg xmlns="http://www.w3.org/2000/svg" xmlns:xlink="http://www.w3.org/1999/xlink" style="enable-background:new 0 0 48 48" id="Layer_1" width="48" height="48" x="0" y="0" version="1.1" viewBox="0 0 48 48" xml:space="preserve"><path style="fill:#78909c" d="M19,39c-0.5,0-1-0.1-1-1.1V34c0-0.6-0.4-1-1-1s-1,0.4-1,1v3.9c0,1.9,1.2,3.1,3,3.1V39z"/><path style="fill:#78909c" d="M14,39c-0.5,0-1-0.1-1-1.1V34c0-0.6-0.4-1-1-1s-1,0.4-1,1v3.9c0,1.9,1.2,3.1,3,3.1V39z"/><rect style="fill:#546e7a" width="2" height="2" x="16" y="32"/><rect style="fill:#546e7a" width="2" height="2" x="11" y="32"/><path style="fill:#78909c" d="M33,39c-0.5,0-1-0.1-1-1.1V34c0-0.6-0.4-1-1-1s-1,0.4-1,1v3.9c0,1.9,1.2,3.1,3,3.1V39z"/><path style="fill:#78909c" d="M28,39c-0.5,0-1-0.1-1-1.1V34c0-0.6-0.4-1-1-1s-1,0.4-1,1v3.9c0,1.9,1.2,3.1,3,3.1V39z"/><rect style="fill:#546e7a" width="2" height="2" x="30" y="32"/><rect style="fill:#546e7a" width="2" height="2" x="25" y="32"/><polygon style="fill:#84ffff" points="45 18 31 7 28.456 14.556"/><polygon style="fill:#00e5ff" points="31 7 6 14 4 20 28.456 14.556"/><polygon style="fill:#00b0ff" points="45 18 28.456 14.556 29.931 25.456"/><polygon style="fill:#0091ea" points="4 20 28.456 14.556 29.931 25.456 5 27"/><polygon style="fill:#1976d2" points="45 18 29.931 25.456 35 32"/><polygon style="fill:#0d47a1" points="5 27 29.931 25.456 35 32 9 32"/></svg>