<svg xmlns="http://www.w3.org/2000/svg" xmlns:svg="http://www.w3.org/2000/svg" id="svg2" width="791.305" height="411.38" version="1.1"><metadata id="metadata7"/><g id="layer1" transform="translate(-170.06157,-370.80109)"><g id="g3013" transform="translate(95.428571,270.18109)"><polygon id="polygon2989" points="74.633 100.62 437.367 100.62 404.321 470.819 255.778 512 107.644 470.877" style="fill:#264de4"/><polygon id="polygon2991" points="256 130.894 256 480.523 376.03 447.246 404.27 130.894" style="fill:#2965f1"/><polygon id="polygon2993" points="256 313.627 256 268.217 150.31 268.217 154.38 313.627" style="fill:#ebebeb"/><polygon id="polygon2995" points="256 221.716 256 176.305 255.843 176.305 142.132 176.305 146.26 221.716" style="fill:#ebebeb"/><polygon id="polygon2997" points="205.227 372.55 201.994 336.333 177.419 336.333 156.409 336.333 162.771 407.634 255.791 433.457 256 433.399 256 386.153 255.801 386.206" style="fill:#ebebeb"/><polygon id="polygon3005" points="255.843 176.305 255.843 221.716 319.831 221.716 315.699 268.217 255.843 268.217 255.843 313.627 311.761 313.627 306.49 372.521 255.843 386.191 255.843 433.435 348.937 407.634 349.62 399.962 360.291 280.411 361.399 268.217 369.597 176.305" style="fill:#fff"/></g><g id="g3054" transform="translate(524,270.18109)"><polygon id="polygon3028" points="255.778 512 107.644 470.877 74.633 100.62 437.367 100.62 404.321 470.819" style="fill:#e44d26"/><polygon id="polygon3030" points="404.27 130.894 256 130.894 256 480.523 376.03 447.246" style="fill:#f16529"/><polygon id="polygon3032" points="256 176.305 255.843 176.305 142.132 176.305 143.219 188.488 154.38 313.627 256 313.627 256 268.217 195.91 268.217 191.76 221.716 256 221.716" style="fill:#ebebeb"/><polygon id="polygon3034" points="156.409 336.333 162.771 407.634 255.791 433.457 256 433.399 256 386.153 255.801 386.206 205.227 372.55 201.994 336.333 177.419 336.333" style="fill:#ebebeb"/><polygon id="polygon3044" points="306.49 372.521 255.843 386.191 255.843 433.435 348.937 407.634 349.62 399.962 360.291 280.411 361.399 268.217 349.162 268.217 255.843 268.217 255.843 313.627 311.761 313.627" style="fill:#fff"/><polygon id="polygon3046" points="365.385 221.716 365.385 221.716 365.531 221.716 366.442 211.509 368.511 188.488 369.597 176.305 255.843 176.305 255.843 204.509 255.843 221.605 255.843 221.716" style="fill:#fff"/></g></g></svg>